<?xml version="1.0" encoding="UTF-8"?><svg id="Laag_2" xmlns="http://www.w3.org/2000/svg" viewBox="0 0 718.96 379.16"><defs><style>.cls-1{fill:#0798cf;}.cls-2,.cls-3{fill:#1d1d1b;}.cls-3{font-family:AvenirNextCondensed-MediumItalic, 'Avenir Next Condensed';font-size:112px;font-style:italic;font-weight:500;}.cls-4{letter-spacing:.2em;}.cls-5{letter-spacing:.18em;}</style></defs><g id="Laag_1-2"><g><g><path class="cls-2" d="M170.8,247.8l2.1-170.1h-1.4l-41.65,170.1h-39.55L50.05,77.7h-1.05l1.75,170.1H0V0H70.7l39.9,159.6h1.4L150.85,0h74.9V247.8h-54.95Z"/><path class="cls-2" d="M379.75,247.8l-10.15-45.15h-55.65l-10.15,45.15h-56L308,0h70.35l59.85,247.8h-58.45Zm-37.1-193.9h-1.4l-21,105.35h42.35l-19.95-105.35Z"/><path class="cls-2" d="M564.2,247.8h-71.05L433.3,0h63.35l33.6,181.3h.7L564.2,0h60.9l-60.9,247.8Z"/><path class="cls-2" d="M646.8,247.8V0h56.35V247.8h-56.35Z"/></g><rect class="cls-1" x="170.9" y="185.05" width="54.88" height="15.69"/><rect class="cls-1" x="170.9" y="143.56" width="54.88" height="15.69"/></g><text class="cls-3" transform="translate(459.46 351.16)"><tspan class="cls-5" x="0" y="0">T</tspan><tspan class="cls-4" x="59.47" y="0">AXI</tspan></text></g></svg>